<svg xmlns="http://www.w3.org/2000/svg" version="1.1" xmlns:xlink="http://www.w3.org/1999/xlink" xmlns:svgjs="http://svgjs.dev/svgjs" width="1000" height="363" viewBox="0 0 1000 363"><g transform="matrix(1,0,0,1,-0.6060498854131424,0.08107712810189582)"><svg viewBox="0 0 396 144" data-background-color="#471aa0" preserveAspectRatio="xMidYMid meet" height="363" width="1000" xmlns="http://www.w3.org/2000/svg" xmlns:xlink="http://www.w3.org/1999/xlink"><g id="tight-bounds" transform="matrix(1,0,0,1,0.23999586518027627,-0.032162827676785355)"><svg viewBox="0 0 395.52 144.06432565535357" height="144.06432565535357" width="395.52"><g><svg viewBox="0 0 395.52 144.06432565535357" height="144.06432565535357" width="395.52"><g><svg viewBox="0 0 395.52 144.06432565535357" height="144.06432565535357" width="395.52"><g><svg viewBox="0 0 395.52 144.06432565535357" height="144.06432565535357" width="395.52"><g><svg viewBox="0 0 395.52 102.35760844079721" height="102.35760844079721" width="395.52"><g transform="matrix(1,0,0,1,0,0)"><svg width="395.52" viewBox="2.700000047683716 -43.650001525878906 170.58999633789062 44.150001525878906" height="102.35760844079721" data-palette-color="#ffffff"><path d="M21.7-19.05Q25.2-19.05 27.28-20.9 29.35-22.75 29.35-26L29.35-26Q29.35-30.7 26.95-33.73 24.55-36.75 19.95-36.75L19.95-36.75Q16.4-36.75 13.5-34.7L13.5-34.7 13.5-3.9 21.1-1.7 20.2 0.05 3.15 0.05 3.15-1.25 7.85-4.95 7.85-35.85 2.7-37.55 3.55-39.3 8.85-39.3Q13.8-39.3 18.6-39.6L18.6-39.6Q22.1-39.8 23.8-39.8L23.8-39.8Q27.25-39.8 29.9-38.33 32.55-36.85 34.02-34.27 35.5-31.7 35.5-28.55L35.5-28.55Q35.5-25.1 33-22.03 30.5-18.95 26.63-17.2 22.75-15.45 18.95-15.65L18.95-15.65 16.55-17.4 17.45-19.15 21.75-19.15 21.7-19.05ZM55.2-1.7L54.3 0.05 40.75 0.05 40.75-1.25 45.2-4.7 45.2-36.15 40.75-39.3 40.75-40.6 49.05-43.65 50.7-43.65 50.7-3.55 55.2-1.7ZM89.9-1.75L89.05 0 79.9 0 79.9-5.4 73.4 0.1Q72.34 0.5 70.7 0.5L70.7 0.5Q67.34 0.5 65.42-1.58 63.5-3.65 63.5-7.2L63.5-7.2 63.5-19.4 59.05-22 59.05-23.3 67.34-27.5 69-27.5 69-9.45Q69-6.6 69.87-5.5 70.75-4.4 73-4.4L73-4.4Q74.59-4.4 76.17-5.03 77.75-5.65 79.9-7.5L79.9-7.5 79.9-19.4 75.45-22 75.45-23.3 83.75-27.5 85.4-27.5 85.4-3.55 89.9-1.75ZM113.49-3.9L108.44 0.1Q107.39 0.5 105.89 0.5L105.89 0.5Q101.84 0.5 99.99-1.68 98.14-3.85 98.14-8.4L98.14-8.4 98.14-23.2 92.74-23.2 92.74-25.1 101.99-36.05 103.64-36.05 103.64-25 112.64-25 112.64-23.2 103.64-23.2 103.64-7.6Q103.64-3.45 107.54-3.45L107.54-3.45Q108.59-3.45 109.57-3.9 110.54-4.35 111.99-5.6L111.99-5.6 113.49-3.9ZM147.09-1.75L146.24 0 137.09 0 137.09-5.4 130.59 0.1Q129.54 0.5 127.89 0.5L127.89 0.5Q124.54 0.5 122.62-1.58 120.69-3.65 120.69-7.2L120.69-7.2 120.69-19.4 116.24-22 116.24-23.3 124.54-27.5 126.19-27.5 126.19-9.45Q126.19-6.6 127.07-5.5 127.94-4.4 130.19-4.4L130.19-4.4Q131.79-4.4 133.37-5.03 134.94-5.65 137.09-7.5L137.09-7.5 137.09-19.4 132.64-22 132.64-23.3 140.94-27.5 142.59-27.5 142.59-3.55 147.09-1.75ZM168.34-5.2Q168.34-6.7 166.76-7.88 165.19-9.05 161.84-10.8L161.84-10.8Q157.94-12.75 155.89-14.4 153.84-16.05 153.84-18.3L153.84-18.3Q153.84-20.1 155.31-22.15 156.79-24.2 158.91-25.6 161.04-27 162.89-27L162.89-27Q165.09-27 168.04-26.43 170.99-25.85 172.34-25.15L172.34-25.15 172.34-17.55 170.69-17.55Q168.99-20.75 166.86-22.55 164.74-24.35 162.49-24.35L162.49-24.35Q160.79-24.35 159.79-23.45 158.79-22.55 158.79-21.25L158.79-21.25Q158.79-19.6 160.41-18.38 162.04-17.15 165.49-15.4L165.49-15.4Q168.04-14.1 169.59-13.18 171.14-12.25 172.21-11 173.29-9.75 173.29-8.2L173.29-8.2Q173.29-6.35 171.74-4.33 170.19-2.3 167.99-0.9 165.79 0.5 163.94 0.5L163.94 0.5Q161.54 0.5 158.24-0.1 154.94-0.7 153.54-1.35L153.54-1.35 153.54-8.85 155.19-8.85Q156.94-5.65 159.41-3.9 161.89-2.15 164.39-2.15L164.39-2.15Q166.14-2.15 167.24-3.05 168.34-3.95 168.34-5.2L168.34-5.2Z" opacity="1" transform="matrix(1,0,0,1,0,0)" fill="#ffffff" class="undefined-text-0" data-fill-palette-color="primary" id="text-0"></path></svg></g></svg></g><g transform="matrix(1,0,0,1,0,126.52178321106685)"><svg viewBox="0 0 232.209792 17.542542444286724" height="17.542542444286724" width="232.209792"><g transform="matrix(1,0,0,1,0,0)"><svg width="232.209792" viewBox="5.550000190734863 -37.650001525878906 633.989990234375 47.900001525878906" height="17.542542444286724" data-palette-color="#ffffff"><path d="M5.55-34.25L8.55-34.25 8.55 0 5.55 0 5.55-34.25ZM23.05-34.25L26.5-34.25 12.3-18.5 27.35 0 23.7 0 8.75-18.35 23.05-34.25ZM51.2-14.05Q51.2-12.95 51.1-11.95L51.1-11.95 33.65-11.95Q33.9-6.85 36.07-4.38 38.25-1.9 41.8-1.9L41.8-1.9Q43.85-1.9 45.42-2.53 47-3.15 48.85-4.5L48.85-4.5 50.2-2.65Q48.25-1.05 46.2-0.25 44.15 0.55 41.65 0.55L41.65 0.55Q36.45 0.55 33.5-3 30.55-6.55 30.55-12.85L30.55-12.85Q30.55-17 31.82-20.13 33.1-23.25 35.47-24.98 37.85-26.7 41-26.7L41-26.7Q46-26.7 48.6-23.33 51.2-19.95 51.2-14.05L51.2-14.05ZM48.35-14.2L48.35-14.95Q48.35-19.35 46.52-21.83 44.7-24.3 41.1-24.3L41.1-24.3Q37.85-24.3 35.85-21.8 33.85-19.3 33.65-14.2L33.65-14.2 48.35-14.2ZM78-14.05Q78-12.95 77.9-11.95L77.9-11.95 60.45-11.95Q60.7-6.85 62.87-4.38 65.05-1.9 68.59-1.9L68.59-1.9Q70.65-1.9 72.22-2.53 73.8-3.15 75.65-4.5L75.65-4.5 77-2.65Q75.05-1.05 73-0.25 70.95 0.55 68.45 0.55L68.45 0.55Q63.25 0.55 60.3-3 57.35-6.55 57.35-12.85L57.35-12.85Q57.35-17 58.62-20.13 59.9-23.25 62.27-24.98 64.65-26.7 67.8-26.7L67.8-26.7Q72.8-26.7 75.4-23.33 78-19.95 78-14.05L78-14.05ZM75.15-14.2L75.15-14.95Q75.15-19.35 73.32-21.83 71.5-24.3 67.9-24.3L67.9-24.3Q64.65-24.3 62.65-21.8 60.65-19.3 60.45-14.2L60.45-14.2 75.15-14.2ZM97.04-26.7Q101.79-26.7 104.17-23.18 106.54-19.65 106.54-13.2L106.54-13.2Q106.54-6.9 103.97-3.18 101.39 0.55 96.59 0.55L96.59 0.55Q94.24 0.55 92.34-0.43 90.44-1.4 89.14-3.05L89.14-3.05 89.14 9.85 86.24 10.25 86.24-26.15 88.74-26.15 88.99-22.35Q90.44-24.4 92.52-25.55 94.59-26.7 97.04-26.7L97.04-26.7ZM96.04-1.9Q99.64-1.9 101.54-4.75 103.44-7.6 103.44-13.2L103.44-13.2Q103.44-24.3 96.49-24.3L96.49-24.3Q94.14-24.3 92.42-23.1 90.69-21.9 89.14-19.8L89.14-19.8 89.14-5.9Q91.74-1.9 96.04-1.9L96.04-1.9ZM146.54-26.15L137.59 0.1Q136.54 3.15 135.29 5.1 134.04 7.05 132.04 8.33 130.04 9.6 126.89 10.2L126.89 10.2 126.59 7.95Q129.19 7.3 130.66 6.35 132.14 5.4 133.01 3.98 133.89 2.55 134.79 0L134.79 0 133.79 0 124.69-26.15 127.84-26.15 135.74-2.15 143.49-26.15 146.54-26.15ZM161.64-26.7Q166.84-26.7 169.76-23.13 172.69-19.55 172.69-13.15L172.69-13.15Q172.69-6.8 169.71-3.13 166.74 0.55 161.59 0.55L161.59 0.55Q156.39 0.55 153.46-3.08 150.53-6.7 150.53-13.05L150.53-13.05Q150.53-17.2 151.89-20.3 153.24-23.4 155.74-25.05 158.24-26.7 161.64-26.7L161.64-26.7ZM161.64-24.25Q157.84-24.25 155.74-21.4 153.64-18.55 153.64-13.05L153.64-13.05Q153.64-7.6 155.71-4.75 157.78-1.9 161.59-1.9L161.59-1.9Q165.39-1.9 167.51-4.75 169.64-7.6 169.64-13.15L169.64-13.15Q169.64-18.6 167.56-21.43 165.49-24.25 161.64-24.25L161.64-24.25ZM199.53-26.15L199.53 0 197.03 0 196.88-4.65Q193.78 0.55 188.33 0.55L188.33 0.55Q184.78 0.55 182.86-1.53 180.93-3.6 180.93-7.45L180.93-7.45 180.93-26.15 183.83-26.15 183.83-7.75Q183.83-4.7 185.11-3.28 186.38-1.85 188.98-1.85L188.98-1.85Q193.53-1.85 196.63-7.2L196.63-7.2 196.63-26.15 199.53-26.15ZM220.28-26.7Q221.83-26.7 222.88-26.4L222.88-26.4 222.33-23.65Q221.23-23.95 220.03-23.95L220.03-23.95Q217.38-23.95 215.76-22.03 214.13-20.1 213.03-16L213.03-16 213.03 0 210.13 0 210.13-26.15 212.63-26.15 212.88-20.3Q213.93-23.55 215.76-25.13 217.58-26.7 220.28-26.7L220.28-26.7ZM268.23-26.7Q271.38-26.7 273.2-24.55 275.03-22.4 275.03-18.7L275.03-18.7 275.03 0 272.13 0 272.13-18.3Q272.13-21.4 270.95-22.88 269.78-24.35 267.68-24.35L267.68-24.35Q265.48-24.35 263.73-22.95 261.98-21.55 260.33-18.95L260.33-18.95 260.33 0 257.43 0 257.43-18.3Q257.43-21.4 256.25-22.88 255.08-24.35 252.98-24.35L252.98-24.35Q250.73-24.35 248.98-22.95 247.23-21.55 245.63-18.95L245.63-18.95 245.63 0 242.73 0 242.73-26.15 245.23-26.15 245.48-21.7Q246.98-24.05 249.03-25.38 251.08-26.7 253.53-26.7L253.53-26.7Q256.03-26.7 257.73-25.33 259.43-23.95 260.03-21.5L260.03-21.5Q261.58-23.95 263.65-25.33 265.73-26.7 268.23-26.7L268.23-26.7ZM294.37-26.7Q299.57-26.7 302.5-23.13 305.42-19.55 305.42-13.15L305.42-13.15Q305.42-6.8 302.45-3.13 299.47 0.55 294.32 0.55L294.32 0.55Q289.12 0.55 286.2-3.08 283.27-6.7 283.27-13.05L283.27-13.05Q283.27-17.2 284.62-20.3 285.97-23.4 288.47-25.05 290.97-26.7 294.37-26.7L294.37-26.7ZM294.37-24.25Q290.57-24.25 288.47-21.4 286.37-18.55 286.37-13.05L286.37-13.05Q286.37-7.6 288.45-4.75 290.52-1.9 294.32-1.9L294.32-1.9Q298.12-1.9 300.25-4.75 302.37-7.6 302.37-13.15L302.37-13.15Q302.37-18.6 300.3-21.43 298.22-24.25 294.37-24.25L294.37-24.25ZM325.47-26.7Q329.02-26.7 330.9-24.6 332.77-22.5 332.77-18.7L332.77-18.7 332.77 0 329.87 0 329.87-18.3Q329.87-21.45 328.62-22.9 327.37-24.35 324.92-24.35L324.92-24.35Q322.42-24.35 320.5-22.98 318.57-21.6 316.82-18.95L316.82-18.95 316.82 0 313.92 0 313.92-26.15 316.42-26.15 316.72-21.7Q318.32-24.05 320.52-25.38 322.72-26.7 325.47-26.7L325.47-26.7ZM361.67-14.05Q361.67-12.95 361.57-11.95L361.57-11.95 344.12-11.95Q344.37-6.85 346.54-4.38 348.72-1.9 352.27-1.9L352.27-1.9Q354.32-1.9 355.89-2.53 357.47-3.15 359.32-4.5L359.32-4.5 360.67-2.65Q358.72-1.05 356.67-0.25 354.62 0.55 352.12 0.55L352.12 0.55Q346.92 0.55 343.97-3 341.02-6.55 341.02-12.85L341.02-12.85Q341.02-17 342.29-20.13 343.57-23.25 345.94-24.98 348.32-26.7 351.47-26.7L351.47-26.7Q356.47-26.7 359.07-23.33 361.67-19.95 361.67-14.05L361.67-14.05ZM358.82-14.2L358.82-14.95Q358.82-19.35 356.99-21.83 355.17-24.3 351.57-24.3L351.57-24.3Q348.32-24.3 346.32-21.8 344.32-19.3 344.12-14.2L344.12-14.2 358.82-14.2ZM387.22-26.15L378.27 0.1Q377.22 3.15 375.97 5.1 374.72 7.05 372.72 8.33 370.72 9.6 367.57 10.2L367.57 10.2 367.27 7.95Q369.87 7.3 371.34 6.35 372.82 5.4 373.69 3.98 374.57 2.55 375.47 0L375.47 0 374.47 0 365.37-26.15 368.52-26.15 376.42-2.15 384.17-26.15 387.22-26.15ZM413.66-26.7Q416.11-26.7 418.11-25.98 420.11-25.25 422.01-23.8L422.01-23.8 420.66-21.9Q418.86-23.15 417.26-23.73 415.66-24.3 413.76-24.3L413.76-24.3Q411.16-24.3 409.56-23.1 407.96-21.9 407.96-19.9L407.96-19.9Q407.96-18 409.34-16.95 410.71-15.9 414.31-14.95L414.31-14.95Q418.76-13.8 420.74-12.05 422.71-10.3 422.71-7.05L422.71-7.05Q422.71-3.55 420.01-1.5 417.31 0.55 413.26 0.55L413.26 0.55Q410.26 0.55 408.01-0.33 405.76-1.2 403.91-2.8L403.91-2.8 405.51-4.65Q407.26-3.25 409.09-2.58 410.91-1.9 413.21-1.9L413.21-1.9Q416.11-1.9 417.89-3.23 419.66-4.55 419.66-6.9L419.66-6.9Q419.66-8.5 419.06-9.5 418.46-10.5 417.01-11.23 415.56-11.95 412.76-12.7L412.76-12.7Q408.61-13.8 406.79-15.45 404.96-17.1 404.96-19.85L404.96-19.85Q404.96-21.8 406.11-23.38 407.26-24.95 409.24-25.83 411.21-26.7 413.66-26.7L413.66-26.7ZM448.81-26.15L448.81 0 446.31 0 446.16-4.65Q443.06 0.55 437.61 0.55L437.61 0.55Q434.06 0.55 432.13-1.53 430.21-3.6 430.21-7.45L430.21-7.45 430.21-26.15 433.11-26.15 433.11-7.75Q433.11-4.7 434.38-3.28 435.66-1.85 438.26-1.85L438.26-1.85Q442.81-1.85 445.91-7.2L445.91-7.2 445.91-26.15 448.81-26.15ZM470.21-26.7Q474.96-26.7 477.33-23.18 479.71-19.65 479.71-13.2L479.71-13.2Q479.71-6.9 477.13-3.18 474.56 0.55 469.75 0.55L469.75 0.55Q467.41 0.55 465.5-0.43 463.61-1.4 462.31-3.05L462.31-3.05 462.31 9.85 459.41 10.25 459.41-26.15 461.91-26.15 462.16-22.35Q463.61-24.4 465.68-25.55 467.75-26.7 470.21-26.7L470.21-26.7ZM469.21-1.9Q472.81-1.9 474.71-4.75 476.61-7.6 476.61-13.2L476.61-13.2Q476.61-24.3 469.66-24.3L469.66-24.3Q467.31-24.3 465.58-23.1 463.86-21.9 462.31-19.8L462.31-19.8 462.31-5.9Q464.91-1.9 469.21-1.9L469.21-1.9ZM507-14.05Q507-12.95 506.9-11.95L506.9-11.95 489.45-11.95Q489.7-6.85 491.88-4.38 494.05-1.9 497.6-1.9L497.6-1.9Q499.65-1.9 501.23-2.53 502.8-3.15 504.65-4.5L504.65-4.5 506-2.65Q504.05-1.05 502-0.25 499.95 0.55 497.45 0.55L497.45 0.55Q492.25 0.55 489.3-3 486.35-6.55 486.35-12.85L486.35-12.85Q486.35-17 487.63-20.13 488.9-23.25 491.28-24.98 493.65-26.7 496.8-26.7L496.8-26.7Q501.8-26.7 504.4-23.33 507-19.95 507-14.05L507-14.05ZM504.15-14.2L504.15-14.95Q504.15-19.35 502.33-21.83 500.5-24.3 496.9-24.3L496.9-24.3Q493.65-24.3 491.65-21.8 489.65-19.3 489.45-14.2L489.45-14.2 504.15-14.2ZM525.4-26.7Q526.95-26.7 528-26.4L528-26.4 527.45-23.65Q526.35-23.95 525.15-23.95L525.15-23.95Q522.5-23.95 520.88-22.03 519.25-20.1 518.15-16L518.15-16 518.15 0 515.25 0 515.25-26.15 517.75-26.15 518-20.3Q519.05-23.55 520.88-25.13 522.7-26.7 525.4-26.7L525.4-26.7ZM548.25-26.15L551.35-26.15 542.3 0 538.7 0 529.35-26.15 532.55-26.15 540.5-2.55 548.25-26.15ZM557.39-26.15L560.29-26.15 560.29 0 557.39 0 557.39-26.15ZM558.79-37.65Q559.79-37.65 560.39-37.05 560.99-36.45 560.99-35.55L560.99-35.55Q560.99-34.65 560.39-34.05 559.79-33.45 558.79-33.45L558.79-33.45Q557.84-33.45 557.24-34.05 556.64-34.65 556.64-35.55L556.64-35.55Q556.64-36.45 557.24-37.05 557.84-37.65 558.79-37.65L558.79-37.65ZM577.29-26.7Q579.74-26.7 581.74-25.98 583.74-25.25 585.64-23.8L585.64-23.8 584.29-21.9Q582.49-23.15 580.89-23.73 579.29-24.3 577.39-24.3L577.39-24.3Q574.79-24.3 573.19-23.1 571.59-21.9 571.59-19.9L571.59-19.9Q571.59-18 572.97-16.95 574.34-15.9 577.94-14.95L577.94-14.95Q582.39-13.8 584.37-12.05 586.34-10.3 586.34-7.05L586.34-7.05Q586.34-3.55 583.64-1.5 580.94 0.55 576.89 0.55L576.89 0.55Q573.89 0.55 571.64-0.33 569.39-1.2 567.54-2.8L567.54-2.8 569.14-4.65Q570.89-3.25 572.72-2.58 574.54-1.9 576.84-1.9L576.84-1.9Q579.74-1.9 581.52-3.23 583.29-4.55 583.29-6.9L583.29-6.9Q583.29-8.5 582.69-9.5 582.09-10.5 580.64-11.23 579.19-11.95 576.39-12.7L576.39-12.7Q572.24-13.8 570.42-15.45 568.59-17.1 568.59-19.85L568.59-19.85Q568.59-21.8 569.74-23.38 570.89-24.95 572.87-25.83 574.84-26.7 577.29-26.7L577.29-26.7ZM612.64-14.05Q612.64-12.95 612.54-11.95L612.54-11.95 595.09-11.95Q595.34-6.85 597.51-4.38 599.69-1.9 603.24-1.9L603.24-1.9Q605.29-1.9 606.86-2.53 608.44-3.15 610.29-4.5L610.29-4.5 611.64-2.65Q609.69-1.05 607.64-0.25 605.59 0.55 603.09 0.55L603.09 0.55Q597.89 0.55 594.94-3 591.99-6.55 591.99-12.85L591.99-12.85Q591.99-17 593.26-20.13 594.54-23.25 596.91-24.98 599.29-26.7 602.44-26.7L602.44-26.7Q607.44-26.7 610.04-23.33 612.64-19.95 612.64-14.05L612.64-14.05ZM609.79-14.2L609.79-14.95Q609.79-19.35 607.96-21.83 606.14-24.3 602.54-24.3L602.54-24.3Q599.29-24.3 597.29-21.8 595.29-19.3 595.09-14.2L595.09-14.2 609.79-14.2ZM636.64-37.15L639.54-36.8 639.54 0 637.04 0 636.69-4Q633.99 0.55 628.84 0.55L628.84 0.55Q624.29 0.55 621.66-3.08 619.04-6.7 619.04-12.95L619.04-12.95Q619.04-17 620.26-20.1 621.49-23.2 623.81-24.95 626.14-26.7 629.29-26.7L629.29-26.7Q633.74-26.7 636.64-23.15L636.64-23.15 636.64-37.15ZM629.29-1.85Q631.79-1.85 633.51-3.05 635.24-4.25 636.64-6.7L636.64-6.7 636.64-20.35Q633.84-24.3 629.79-24.3L629.79-24.3Q626.24-24.3 624.16-21.35 622.09-18.4 622.14-13L622.14-13Q622.14-7.6 624.04-4.73 625.94-1.85 629.29-1.85L629.29-1.85Z" opacity="1" transform="matrix(1,0,0,1,0,0)" fill="#ffffff" class="undefined-text-1" data-fill-palette-color="secondary" id="text-1"></path></svg></g></svg></g></svg></g></svg></g></svg></g><defs></defs></svg><rect width="395.52" height="144.06432565535357" fill="none" stroke="none" visibility="hidden"></rect></g></svg></g></svg>