<svg xmlns="http://www.w3.org/2000/svg" version="1.1" xmlns:xlink="http://www.w3.org/1999/xlink" xmlns:svgjs="http://svgjs.dev/svgjs" width="800" height="976" viewBox="0 0 800 976"><g transform="matrix(1,0,0,1,0.5255930210731776,-1.5741935483870293)"><svg viewBox="0 0 127 155" data-background-color="#471aa0" preserveAspectRatio="xMidYMid meet" height="976" width="800" xmlns="http://www.w3.org/2000/svg" xmlns:xlink="http://www.w3.org/1999/xlink"><g id="tight-bounds" transform="matrix(1,0,0,1,-0.08343789209536823,0.2499999999999858)"><svg viewBox="0 0 127.16687578419074 154.5" height="154.5" width="127.16687578419074"><g><svg viewBox="0 0 127.16687578419074 154.5" height="154.5" width="127.16687578419074"><g><svg viewBox="0 0 127.16687578419074 154.5" height="154.5" width="127.16687578419074"><g><svg viewBox="0 0 127.16687578419074 154.5" height="154.5" width="127.16687578419074"><g><svg viewBox="0 0 127.16687578419074 154.5" height="154.5" width="127.16687578419074"><g transform="matrix(1,0,0,1,0,0)"><svg width="127.16687578419074" viewBox="2.7 -39.8 32.8 39.849999999999994" height="154.5" data-palette-color="#ffffff"><path d="M21.7-19.05Q25.2-19.05 27.28-20.9 29.35-22.75 29.35-26L29.35-26Q29.35-30.7 26.95-33.73 24.55-36.75 19.95-36.75L19.95-36.75Q16.4-36.75 13.5-34.7L13.5-34.7 13.5-3.9 21.1-1.7 20.2 0.05 3.15 0.05 3.15-1.25 7.85-4.95 7.85-35.85 2.7-37.55 3.55-39.3 8.85-39.3Q13.8-39.3 18.6-39.6L18.6-39.6Q22.1-39.8 23.8-39.8L23.8-39.8Q27.25-39.8 29.9-38.33 32.55-36.85 34.02-34.27 35.5-31.7 35.5-28.55L35.5-28.55Q35.5-25.1 33-22.03 30.5-18.95 26.63-17.2 22.75-15.45 18.95-15.65L18.95-15.65 16.55-17.4 17.45-19.15 21.75-19.15 21.7-19.05Z" opacity="1" transform="matrix(1,0,0,1,0,0)" fill="#ffffff" class="undefined-text-0" data-fill-palette-color="primary" id="text-0"></path></svg></g></svg></g></svg></g></svg></g></svg></g><defs></defs></svg><rect width="127.16687578419074" height="154.5" fill="none" stroke="none" visibility="hidden"></rect></g></svg></g></svg>