<svg xmlns="http://www.w3.org/2000/svg" version="1.1" xmlns:xlink="http://www.w3.org/1999/xlink" xmlns:svgjs="http://svgjs.dev/svgjs" width="800" height="206" viewBox="0 0 800 206"><g transform="matrix(1,0,0,1,-0.48484848484849863,0.3611144059030664)"><svg viewBox="0 0 396 102" data-background-color="#471aa0" preserveAspectRatio="xMidYMid meet" height="206" width="800" xmlns="http://www.w3.org/2000/svg" xmlns:xlink="http://www.w3.org/1999/xlink"><g id="tight-bounds" transform="matrix(1,0,0,1,0.2400000000000091,-0.17880422039860377)"><svg viewBox="0 0 395.52 102.35760844079721" height="102.35760844079721" width="395.52"><g><svg viewBox="0 0 395.52 102.35760844079721" height="102.35760844079721" width="395.52"><g><svg viewBox="0 0 395.52 102.35760844079721" height="102.35760844079721" width="395.52"><g><svg viewBox="0 0 395.52 102.35760844079721" height="102.35760844079721" width="395.52"><g><svg viewBox="0 0 395.52 102.35760844079721" height="102.35760844079721" width="395.52"><g transform="matrix(1,0,0,1,0,0)"><svg width="395.52" viewBox="2.7 -43.65 170.59 44.15" height="102.35760844079721" data-palette-color="#ffffff"><path d="M21.7-19.05Q25.2-19.05 27.28-20.9 29.35-22.75 29.35-26L29.35-26Q29.35-30.7 26.95-33.73 24.55-36.75 19.95-36.75L19.95-36.75Q16.4-36.75 13.5-34.7L13.5-34.7 13.5-3.9 21.1-1.7 20.2 0.05 3.15 0.05 3.15-1.25 7.85-4.95 7.85-35.85 2.7-37.55 3.55-39.3 8.85-39.3Q13.8-39.3 18.6-39.6L18.6-39.6Q22.1-39.8 23.8-39.8L23.8-39.8Q27.25-39.8 29.9-38.33 32.55-36.85 34.02-34.27 35.5-31.7 35.5-28.55L35.5-28.55Q35.5-25.1 33-22.03 30.5-18.95 26.63-17.2 22.75-15.45 18.95-15.65L18.95-15.65 16.55-17.4 17.45-19.15 21.75-19.15 21.7-19.05ZM55.2-1.7L54.3 0.05 40.75 0.05 40.75-1.25 45.2-4.7 45.2-36.15 40.75-39.3 40.75-40.6 49.05-43.65 50.7-43.65 50.7-3.55 55.2-1.7ZM89.9-1.75L89.05 0 79.9 0 79.9-5.4 73.4 0.1Q72.34 0.5 70.7 0.5L70.7 0.5Q67.34 0.5 65.42-1.58 63.5-3.65 63.5-7.2L63.5-7.2 63.5-19.4 59.05-22 59.05-23.3 67.34-27.5 69-27.5 69-9.45Q69-6.6 69.87-5.5 70.75-4.4 73-4.4L73-4.4Q74.59-4.4 76.17-5.03 77.75-5.65 79.9-7.5L79.9-7.5 79.9-19.4 75.45-22 75.45-23.3 83.75-27.5 85.4-27.5 85.4-3.55 89.9-1.75ZM113.49-3.9L108.44 0.1Q107.39 0.5 105.89 0.5L105.89 0.5Q101.84 0.5 99.99-1.68 98.14-3.85 98.14-8.4L98.14-8.4 98.14-23.2 92.74-23.2 92.74-25.1 101.99-36.05 103.64-36.05 103.64-25 112.64-25 112.64-23.2 103.64-23.2 103.64-7.6Q103.64-3.45 107.54-3.45L107.54-3.45Q108.59-3.45 109.57-3.9 110.54-4.35 111.99-5.6L111.99-5.6 113.49-3.9ZM147.09-1.75L146.24 0 137.09 0 137.09-5.4 130.59 0.1Q129.54 0.5 127.89 0.5L127.89 0.5Q124.54 0.5 122.62-1.58 120.69-3.65 120.69-7.2L120.69-7.2 120.69-19.4 116.24-22 116.24-23.3 124.54-27.5 126.19-27.5 126.19-9.45Q126.19-6.6 127.07-5.5 127.94-4.4 130.19-4.4L130.19-4.4Q131.79-4.4 133.37-5.03 134.94-5.65 137.09-7.5L137.09-7.5 137.09-19.4 132.64-22 132.64-23.3 140.94-27.5 142.59-27.5 142.59-3.55 147.09-1.75ZM168.34-5.2Q168.34-6.7 166.76-7.88 165.19-9.05 161.84-10.8L161.84-10.8Q157.94-12.75 155.89-14.4 153.84-16.05 153.84-18.3L153.84-18.3Q153.84-20.1 155.31-22.15 156.79-24.2 158.91-25.6 161.04-27 162.89-27L162.89-27Q165.09-27 168.04-26.43 170.99-25.85 172.34-25.15L172.34-25.15 172.34-17.55 170.69-17.55Q168.99-20.75 166.86-22.55 164.74-24.35 162.49-24.35L162.49-24.35Q160.79-24.35 159.79-23.45 158.79-22.55 158.79-21.25L158.79-21.25Q158.79-19.6 160.41-18.38 162.04-17.15 165.49-15.4L165.49-15.4Q168.04-14.1 169.59-13.18 171.14-12.25 172.21-11 173.29-9.75 173.29-8.2L173.29-8.2Q173.29-6.35 171.74-4.33 170.19-2.3 167.99-0.9 165.79 0.5 163.94 0.5L163.94 0.5Q161.54 0.5 158.24-0.1 154.94-0.7 153.54-1.35L153.54-1.35 153.54-8.85 155.19-8.85Q156.94-5.65 159.41-3.9 161.89-2.15 164.39-2.15L164.39-2.15Q166.14-2.15 167.24-3.05 168.34-3.95 168.34-5.2L168.34-5.2Z" opacity="1" transform="matrix(1,0,0,1,0,0)" fill="#ffffff" class="undefined-text-0" data-fill-palette-color="primary" id="text-0"></path></svg></g></svg></g></svg></g></svg></g></svg></g><defs></defs></svg><rect width="395.52" height="102.35760844079721" fill="none" stroke="none" visibility="hidden"></rect></g></svg></g></svg>